<svg width="14" height="13" viewBox="0 0 14 13" fill="none" xmlns="http://www.w3.org/2000/svg">
<path fill-rule="evenodd" clip-rule="evenodd" d="M5.49935 8.96661C7.43235 8.96701 8.99967 7.40032 9.00006 5.46733C9.00045 3.53433 7.43377 1.96701 5.50077 1.96661C3.56778 1.96622 2.00045 3.53291 2.00006 5.4659C1.99967 7.3989 3.56635 8.96622 5.49935 8.96661ZM5.49914 9.96661C7.98443 9.96712 9.99955 7.95281 10.0001 5.46753C10.0006 2.98225 7.98626 0.96712 5.50098 0.966614C3.0157 0.966108 1.00057 2.98042 1.00006 5.4657C0.999555 7.95098 3.01386 9.96611 5.49914 9.96661Z" fill="black" fill-opacity="0.5"/>
<path fill-rule="evenodd" clip-rule="evenodd" d="M12.6533 12.5859L7.99967 7.96713L8.70972 7.26297L13.3633 11.8818L12.6533 12.5859Z" fill="black" fill-opacity="0.5"/>
</svg>
